{
  "accessors": [
    {
      "bufferView": 2,
      "componentType": 5126,
      "count": 3088,
      "max": [
        0.06947539746761322,
        1.5398526191711426,
        0.031856659799814224
      ],
      "min": [
        -0.06947539746761322,
        1.5209622383117676,
        -0.009490114636719227
      ],
      "type": "VEC3"
    },
    {
      "bufferView": 2,
      "byteOffset": 37056,
      "componentType": 5126,
      "count": 3088,
      "max": [
        0.9999042749404907,
        0.9997999668121338,
        0.920039176940918
      ],
      "min": [
        -0.9999042749404907,
        -0.9999051690101624,
        -0.9930115938186646
      ],
      "type": "VEC3"
    },
    {
      "bufferView": 1,
      "componentType": 5126,
      "count": 3088,
      "max": [
        0.3759240508079529,
        0.37116777896881104
      ],
      "min": [
        0.06106072664260864,
        0.031383153051137924
      ],
      "type": "VEC2"
    },
    {
      "bufferView": 0,
      "componentType": 5125,
      "count": 14064,
      "type": "SCALAR"
    },
    {
      "bufferView": 2,
      "byteOffset": 74112,
      "componentType": 5126,
      "count": 5288,
      "max": [
        0.06554107367992401,
        1.541637897491455,
        0.10582422465085983
      ],
      "min": [
        -0.06554107367992401,
        1.5014735460281372,
        0.03165852278470993
      ],
      "type": "VEC3"
    },
    {
      "bufferView": 2,
      "byteOffset": 137568,
      "componentType": 5126,
      "count": 5288,
      "max": [
        0.999441385269165,
        0.9998578429222107,
        0.999992311000824
      ],
      "min": [
        -0.9994414448738098,
        -0.9998405575752258,
        -0.9997851252555847
      ],
      "type": "VEC3"
    },
    {
      "bufferView": 1,
      "byteOffset": 24704,
      "componentType": 5126,
      "count": 5288,
      "max": [
        0.8792586922645569,
        0.9715558886528015
      ],
      "min": [
        0.023795412853360176,
        0.0017293092096224427
      ],
      "type": "VEC2"
    },
    {
      "bufferView": 0,
      "byteOffset": 56256,
      "componentType": 5125,
      "count": 24108,
      "type": "SCALAR"
    },
    {
      "bufferView": 2,
      "byteOffset": 201024,
      "componentType": 5126,
      "count": 252,
      "max": [
        0.04705168679356575,
        1.5406240224838257,
        0.10340572893619537
      ],
      "min": [
        -0.04705168679356575,
        1.502482533454895,
        0.09723113477230072
      ],
      "type": "VEC3"
    },
    {
      "bufferView": 2,
      "byteOffset": 204048,
      "componentType": 5126,
      "count": 252,
      "max": [
        0.15530306100845337,
        -0.010798039846122265,
        0.9878080487251282
      ],
      "min": [
        -0.15530237555503845,
        -0.010798071511089802,
        0.9878078699111938
      ],
      "type": "VEC3"
    },
    {
      "bufferView": 1,
      "byteOffset": 67008,
      "componentType": 5126,
      "count": 252,
      "max": [
        0.9473856687545776,
        0.9388376474380493
      ],
      "min": [
        0.7676151394844055,
        0.7580585479736328
      ],
      "type": "VEC2"
    },
    {
      "bufferView": 0,
      "byteOffset": 152688,
      "componentType": 5125,
      "count": 744,
      "type": "SCALAR"
    }
  ],
  "asset": {
    "extras": {
      "author": "Atraxium (https://sketchfab.com/atraxium)",
      "license": "CC-BY-4.0 (http://creativecommons.org/licenses/by/4.0/)",
      "source": "https://sketchfab.com/3d-models/glasses01-620d02176cf2497290156ae571438758",
      "title": "Glasses01"
    },
    "generator": "Sketchfab-0.3.0",
    "version": "2.0"
  },
  "bufferViews": [
    {
      "buffer": 0,
      "byteLength": 155664,
      "name": "floatBufferViews",
      "target": 34963
    },
    {
      "buffer": 0,
      "byteLength": 69024,
      "byteOffset": 155664,
      "byteStride": 8,
      "name": "floatBufferViews",
      "target": 34962
    },
    {
      "buffer": 0,
      "byteLength": 207072,
      "byteOffset": 224688,
      "byteStride": 12,
      "name": "floatBufferViews",
      "target": 34962
    }
  ],
  "buffers": [
    {
      "byteLength": 431760,
      "uri": "scene.bin"
    }
  ],
  "extensionsUsed": [
    "KHR_materials_clearcoat",
    "KHR_materials_specular"
  ],
  "materials": [
    {
      "doubleSided": true,
      "extensions": {
        "KHR_materials_clearcoat": {
          "clearcoatFactor": 1.0,
          "clearcoatRoughnessFactor": 0.04
        },
        "KHR_materials_specular": {
          "specularColorFactor": [
            1.0,
            1.0,
            1.0
          ],
          "specularFactor": 0.29104850605258986
        }
      },
      "name": "gummi",
      "pbrMetallicRoughness": {
        "baseColorFactor": [
          0.0,
          0.0,
          0.0,
          1.0
        ],
        "metallicFactor": 0.0,
        "roughnessFactor": 0.1725689068766686
      }
    },
    {
      "doubleSided": true,
      "extensions": {
        "KHR_materials_specular": {
          "specularColorFactor": [
            1.0,
            1.0,
            1.0
          ],
          "specularFactor": 1.0
        }
      },
      "name": "Metal",
      "pbrMetallicRoughness": {
        "baseColorFactor": [
          0.46873,
          0.372396,
          0.157208,
          1.0
        ],
        "roughnessFactor": 0.0
      }
    },
    {
      "alphaMode": "BLEND",
      "doubleSided": true,
      "extensions": {
        "KHR_materials_clearcoat": {
          "clearcoatFactor": 1.0,
          "clearcoatRoughnessFactor": 0.04
        }
      },
      "name": "Glass",
      "pbrMetallicRoughness": {
        "baseColorFactor": [
          0.8,
          0.8,
          0.8,
          0.1386670892711292
        ],
        "metallicFactor": 0.0,
        "roughnessFactor": 0.8040408205773457
      }
    }
  ],
  "meshes": [
    {
      "name": "frame_gummi_0",
      "primitives": [
        {
          "attributes": {
            "NORMAL": 1,
            "POSITION": 0,
            "TEXCOORD_0": 2
          },
          "indices": 3,
          "material": 0,
          "mode": 4
        }
      ]
    },
    {
      "name": "frame_Metal_0",
      "primitives": [
        {
          "attributes": {
            "NORMAL": 5,
            "POSITION": 4,
            "TEXCOORD_0": 6
          },
          "indices": 7,
          "material": 1,
          "mode": 4
        }
      ]
    },
    {
      "name": "glass_Glass_0",
      "primitives": [
        {
          "attributes": {
            "NORMAL": 9,
            "POSITION": 8,
            "TEXCOORD_0": 10
          },
          "indices": 11,
          "material": 2,
          "mode": 4
        }
      ]
    }
  ],
  "nodes": [
    {
      "children": [
        1
      ],
      "matrix": [
        1.0,
        0.0,
        0.0,
        0.0,
        0.0,
        2.220446049250313e-16,
        -1.0,
        0.0,
        0.0,
        1.0,
        2.220446049250313e-16,
        0.0,
        0.0,
        0.0,
        0.0,
        1.0
      ],
      "name": "Sketchfab_model"
    },
    {
      "children": [
        2
      ],
      "matrix": [
        0.009999999776482582,
        0.0,
        0.0,
        0.0,
        0.0,
        0.0,
        0.009999999776482582,
        0.0,
        0.0,
        -0.009999999776482582,
        0.0,
        0.0,
        0.0,
        0.0,
        0.0,
        1.0
      ],
      "name": "d681edac97474201bc8e1ce9ce16ad1a.fbx"
    },
    {
      "children": [
        3,
        6
      ],
      "name": "RootNode"
    },
    {
      "children": [
        4,
        5
      ],
      "matrix": [
        100.0,
        2.3957709225658994e-19,
        2.8421706042272226e-12,
        0.0,
        -2.499917660307617e-20,
        99.99999999999972,
        -7.5497901264043296e-06,
        0.0,
        -2.8421706042272327e-12,
        7.5497901264043296e-06,
        99.99999999999972,
        0.0,
        -1.6035926113464744e-14,
        2.8124985318651353e-14,
        3.72526756109437e-07,
        1.0
      ],
      "name": "frame"
    },
    {
      "mesh": 0,
      "name": "frame_gummi_0"
    },
    {
      "mesh": 1,
      "name": "frame_Metal_0"
    },
    {
      "children": [
        7
      ],
      "matrix": [
        100.0,
        2.3957709225658994e-19,
        2.8421706042272226e-12,
        0.0,
        -2.499917660307617e-20,
        99.99999999999972,
        -7.5497901264043296e-06,
        0.0,
        -2.8421706042272327e-12,
        7.5497901264043296e-06,
        99.99999999999972,
        0.0,
        -1.6035926113464744e-14,
        2.8124985318651353e-14,
        3.72526756109437e-07,
        1.0
      ],
      "name": "glass"
    },
    {
      "mesh": 2,
      "name": "glass_Glass_0"
    }
  ],
  "scene": 0,
  "scenes": [
    {
      "name": "Sketchfab_Scene",
      "nodes": [
        0
      ]
    }
  ]
}
